<?xml version="1.0" encoding="utf-8"?>
<!-- Generator: Adobe Illustrator 25.0.0, SVG Export Plug-In . SVG Version: 6.00 Build 0)  -->
<svg version="1.1" id="Layer_1" xmlns="http://www.w3.org/2000/svg" xmlns:xlink="http://www.w3.org/1999/xlink" x="0px" y="0px"
	 viewBox="0 0 213 60" style="enable-background:new 0 0 213 60;" xml:space="preserve">
<style type="text/css">
	.st0{fill:#FAC91B;}
	.st1{fill:none;stroke:#000000;stroke-width:1.3409;stroke-miterlimit:10;}
	.st2{fill:none;stroke:#000000;stroke-width:0.8939;stroke-miterlimit:10;}
</style>
<g>
	<path d="M78.1,14.5V13h-3v1.5c-3.3,0.1-6.4,2.1-6.4,5.9c0,3.8,3,5.8,6.4,5.9v1.4h3v-1.4c3.3-0.1,6.4-2.1,6.4-5.9
		C84.5,16.6,81.4,14.6,78.1,14.5z M75.1,23.7c-2-0.1-3.4-1.3-3.4-3.3c0-2,1.4-3.3,3.4-3.3V23.7z M78.1,23.7v-6.6
		c1.9,0,3.4,1.3,3.4,3.3C81.5,22.4,80.1,23.6,78.1,23.7z M96.3,17.2h-2.8l-4,6v-6h-2.9v10.3h2.8l4-6v6h2.9V17.2z M102,27.5v-4h3.7v4
		h2.9V17.2h-2.9v3.8H102v-3.8h-2.9v10.3H102z M117.2,20.6v0.5h-2.3c-2.6,0-4.2,1.2-4.2,3.3c0,2.1,1.6,3.3,3.6,3.3
		c1.3,0,2.4-0.5,3.1-1.4v1.1h2.7v-6.8c0-2.5-1.8-3.8-4.4-3.8c-2.7,0-4.2,1.5-4.5,3.3h2.7c0.2-0.5,0.7-1,1.7-1
		C116.5,19.2,117.2,19.7,117.2,20.6z M115.1,25.5c-0.9,0-1.5-0.4-1.5-1.2c0-0.7,0.6-1.2,1.5-1.2h2v0.5
		C117.2,24.8,116.2,25.5,115.1,25.5z M125.6,27.5v-4h3.7v4h2.9V17.2h-2.9v3.8h-3.7v-3.8h-2.9v10.3H125.6z M139.5,25.2
		c-1.4,0-2.2-1.1-2.2-2.9c0-1.7,0.9-2.9,2.2-2.9c1.1,0,1.7,0.8,1.9,1.4h2.8c-0.2-2.1-1.8-3.9-4.7-3.9c-3.2,0-5.1,2.3-5.1,5.4
		c0,3.1,2,5.4,5.1,5.4c2.8,0,4.5-1.7,4.7-4h-2.8C141.2,24.5,140.7,25.2,139.5,25.2z M150.9,16.9c-3.1,0-5.2,2.2-5.2,5.4
		s2.1,5.4,5.2,5.4c3.1,0,5.2-2.1,5.2-5.4S154,16.9,150.9,16.9z M150.9,25.2c-1.4,0-2.3-1.2-2.3-2.9c0-1.7,0.9-2.9,2.3-2.9
		c1.4,0,2.3,1.2,2.3,2.9C153.2,24,152.4,25.2,150.9,25.2z M158.3,27.5h5c2.5,0,3.8-1.3,3.8-2.9c0-1.4-0.9-2.2-1.9-2.5
		c0.8-0.3,1.5-1,1.5-2.2c0-1.5-1.2-2.7-3.6-2.7h-4.9V27.5z M163,23.2c0.8,0,1.3,0.4,1.3,1.1c0,0.7-0.5,1.1-1.3,1.1h-1.8v-2.2H163z
		 M162.8,19.2c0.8,0,1.2,0.4,1.2,1c0,0.6-0.4,1-1.2,1h-1.6v-2H162.8z M175.3,20.6v0.5H173c-2.6,0-4.2,1.2-4.2,3.3
		c0,2.1,1.6,3.3,3.6,3.3c1.3,0,2.4-0.5,3.1-1.4v1.1h2.7v-6.8c0-2.5-1.8-3.8-4.4-3.8c-2.7,0-4.2,1.5-4.5,3.3h2.7c0.2-0.5,0.7-1,1.7-1
		C174.5,19.2,175.3,19.7,175.3,20.6z M173.2,25.5c-0.9,0-1.5-0.4-1.5-1.2c0-0.7,0.6-1.2,1.5-1.2h2v0.5
		C175.3,24.8,174.3,25.5,173.2,25.5z M189.1,27.5V17.2h-4.8c-2.6,0-4,1.6-4,3.6c0,1.3,0.6,2.4,1.8,3.1l-2.4,3.7h3.2l2-3.2h1.2v3.2
		H189.1z M183.3,20.8c0-0.8,0.6-1.3,1.5-1.3h1.5v2.7h-1.5C183.8,22.1,183.3,21.5,183.3,20.8z M72.2,47.5v-4.6l3.4,4.6h3.4L74.8,42
		l4-4.9h-3.3l-3.4,4.1v-4.1h-2.9v10.3H72.2z M87,37.2l-2.3,6.7l-2.3-6.7h-3.1l3.9,10.1l-1.6,4.1h3.1l5.4-14.2H87z M90.3,47.5h0.8
		c2.4,0,3.6-1.2,3.8-4.1l0.3-3.7h2.7v7.8h2.9V37.2h-8.1l-0.5,6.1c-0.1,1.3-0.5,1.8-1.5,1.8h-0.4V47.5z M106.4,37.2h-2.9v10.3h4.7
		c2.4,0,4-1.6,4-3.7c0-2.1-1.5-3.7-4-3.7h-1.8V37.2z M107.8,42.4c0.9,0,1.5,0.5,1.5,1.3c0,0.8-0.6,1.4-1.5,1.4h-1.4v-2.7H107.8z
		 M112.6,39.7h3.1v7.8h2.9v-7.8h3.1v-2.5h-9.1V39.7z M130.3,37.2l-2.3,6.7l-2.3-6.7h-3.1l3.9,10.1l-1.6,4.1h3.1l5.4-14.2H130.3z
		 M140.7,36.9c-1.5,0-2.5,0.7-3,1.4v-1.2h-2.8v14.2h2.9v-4.8c0.5,0.7,1.5,1.2,2.8,1.2c2.5,0,4.6-2,4.6-5.4
		C145.2,38.9,143.2,36.9,140.7,36.9z M140,45.2c-1.4,0-2.3-1.1-2.3-2.8v-0.1c0-1.7,0.9-2.9,2.3-2.9s2.2,1.1,2.2,2.9
		S141.4,45.2,140,45.2z M153.3,40.6v0.5H151c-2.6,0-4.2,1.2-4.2,3.3c0,2.1,1.6,3.3,3.6,3.3c1.3,0,2.4-0.5,3.1-1.4v1.1h2.7v-6.8
		c0-2.5-1.8-3.8-4.4-3.8c-2.7,0-4.2,1.5-4.5,3.3h2.7c0.2-0.5,0.7-1,1.7-1C152.6,39.2,153.3,39.7,153.3,40.6z M151.2,45.5
		c-0.9,0-1.5-0.4-1.5-1.2c0-0.7,0.6-1.2,1.5-1.2h2v0.5C153.3,44.8,152.3,45.5,151.2,45.5z"/>
	<path class="st0" d="M29.5,0.5L29.5,0.5C45.8,0.5,59,13.7,59,30l0,0c0,16.3-13.2,29.5-29.5,29.5l0,0C13.2,59.5,0,46.3,0,30l0,0
		C0,13.7,13.2,0.5,29.5,0.5z"/>
	<path class="st1" d="M29.5,59.5C45.8,59.5,59,46.3,59,30S45.8,0.5,29.5,0.5S0,13.7,0,30S13.2,59.5,29.5,59.5z"/>
	<path d="M24.3,20.5V21v8.3h-2.9h-0.4v0.4v2v0.4h0.4h2.9v1.5h-2.9h-0.4v0.4v1.7v0.4h0.4h2.9v2.5v0.4h0.4H27h0.4v-0.4v-2.5h5.8h0.4
		v-0.4v-1.7v-0.4h-0.4h-5.8v-1.5h4.5c1.8,0,3.2-0.5,4.3-1.6c1.1-1.1,1.7-2.5,1.7-4.2c0-1.7-0.5-3.1-1.7-4.2
		c-1.1-1.1-2.6-1.6-4.3-1.6h-7.2H24.3z M27.4,23.4h4.2c0.9,0,1.7,0.3,2.2,0.8c0.5,0.5,0.9,1.3,0.9,2.1c0,0.9-0.3,1.6-0.9,2.1
		c-0.5,0.5-1.3,0.8-2.2,0.8h-4.2V23.4z"/>
	<path class="st2" d="M27,2.3l0.1,2.5"/>
	<path class="st2" d="M36.2,3l-0.6,2.5"/>
	<path class="st2" d="M45,7l-1.6,2"/>
	<path class="st2" d="M51.3,12.9l-1.9,1.6"/>
	<path class="st2" d="M55.6,21.2l-2.5,0.7"/>
	<path class="st2" d="M57,29.6h-2.7"/>
	<path class="st2" d="M55.6,38.7l-2.4-1.1"/>
	<path class="st2" d="M51.5,46.4l-2.1-1.9"/>
	<path class="st2" d="M45.2,52.7l-1.4-2.2"/>
	<path class="st2" d="M37.2,56.5L36.4,54"/>
	<path class="st2" d="M28,57.7l0.2-2.8"/>
	<path class="st2" d="M18.8,55.6l1.2-2.5"/>
	<path class="st2" d="M10.9,50.6l2-2"/>
	<path class="st2" d="M5.4,43.8l2.3-1.3"/>
	<path class="st2" d="M4.9,17.2l2.3,1.4"/>
	<path class="st2" d="M10.5,9.9l2,1.9"/>
	<path class="st2" d="M18.2,4.8l1.2,2.4"/>
</g>
</svg>
